<?xml version="1.0" encoding="UTF-8"?>
<svg xmlns="http://www.w3.org/2000/svg" version="1.1" width="200" height="200" viewBox="0 0 200 200"><rect x="0" y="0" width="200" height="200" fill="#ffffff"/><g transform="scale(6.897)"><g transform="translate(0,0)"><path fill-rule="evenodd" d="M10 0L10 2L11 2L11 0ZM12 0L12 1L13 1L13 2L12 2L12 4L13 4L13 3L14 3L14 4L15 4L15 5L17 5L17 4L16 4L16 2L19 2L19 4L18 4L18 5L19 5L19 4L20 4L20 5L21 5L21 4L20 4L20 2L19 2L19 1L16 1L16 0ZM20 0L20 1L21 1L21 0ZM8 1L8 2L9 2L9 1ZM14 2L14 3L15 3L15 2ZM8 3L8 4L9 4L9 5L8 5L8 7L9 7L9 8L6 8L6 9L7 9L7 10L6 10L6 11L8 11L8 10L9 10L9 9L10 9L10 11L11 11L11 9L12 9L12 10L13 10L13 11L12 11L12 13L13 13L13 12L14 12L14 13L16 13L16 14L15 14L15 15L14 15L14 16L16 16L16 14L18 14L18 16L17 16L17 17L16 17L16 18L15 18L15 17L12 17L12 15L13 15L13 14L10 14L10 15L9 15L9 13L11 13L11 12L9 12L9 13L8 13L8 12L6 12L6 13L5 13L5 12L4 12L4 11L3 11L3 9L4 9L4 10L5 10L5 8L0 8L0 9L1 9L1 10L0 10L0 11L1 11L1 12L0 12L0 15L1 15L1 16L0 16L0 21L1 21L1 18L2 18L2 17L3 17L3 19L2 19L2 20L3 20L3 21L4 21L4 20L3 20L3 19L4 19L4 17L5 17L5 20L6 20L6 21L8 21L8 23L9 23L9 24L8 24L8 29L9 29L9 27L11 27L11 26L9 26L9 25L10 25L10 23L11 23L11 25L12 25L12 26L13 26L13 27L12 27L12 29L13 29L13 28L14 28L14 29L19 29L19 28L22 28L22 29L23 29L23 28L24 28L24 29L25 29L25 28L26 28L26 29L27 29L27 28L28 28L28 26L29 26L29 25L28 25L28 24L29 24L29 23L28 23L28 22L29 22L29 21L28 21L28 20L29 20L29 19L28 19L28 20L27 20L27 21L28 21L28 22L25 22L25 21L26 21L26 19L27 19L27 18L26 18L26 15L27 15L27 14L26 14L26 8L25 8L25 9L24 9L24 8L23 8L23 9L22 9L22 8L21 8L21 6L20 6L20 8L21 8L21 9L19 9L19 10L18 10L18 12L19 12L19 14L18 14L18 13L16 13L16 12L17 12L17 10L16 10L16 9L12 9L12 7L13 7L13 5L11 5L11 6L10 6L10 4L11 4L11 3ZM9 6L9 7L10 7L10 6ZM11 6L11 7L12 7L12 6ZM14 6L14 8L15 8L15 6ZM16 6L16 8L17 8L17 6ZM18 6L18 7L19 7L19 6ZM10 8L10 9L11 9L11 8ZM27 8L27 9L28 9L28 8ZM19 10L19 11L21 11L21 12L20 12L20 13L22 13L22 14L21 14L21 15L20 15L20 14L19 14L19 16L18 16L18 17L17 17L17 18L16 18L16 19L14 19L14 20L13 20L13 21L12 21L12 19L13 19L13 18L12 18L12 17L11 17L11 19L9 19L9 18L10 18L10 16L9 16L9 15L8 15L8 16L9 16L9 17L8 17L8 19L9 19L9 20L10 20L10 21L9 21L9 22L10 22L10 21L11 21L11 22L13 22L13 23L12 23L12 25L15 25L15 26L16 26L16 25L15 25L15 24L18 24L18 26L17 26L17 28L18 28L18 26L19 26L19 27L22 27L22 28L23 28L23 27L22 27L22 26L23 26L23 25L22 25L22 26L21 26L21 25L20 25L20 24L18 24L18 23L20 23L20 21L19 21L19 20L22 20L22 19L23 19L23 20L24 20L24 19L23 19L23 18L22 18L22 17L25 17L25 16L22 16L22 17L20 17L20 16L21 16L21 15L22 15L22 14L23 14L23 12L22 12L22 10ZM23 10L23 11L25 11L25 10ZM2 11L2 12L1 12L1 14L2 14L2 15L3 15L3 14L2 14L2 12L3 12L3 13L4 13L4 16L3 16L3 17L4 17L4 16L7 16L7 15L5 15L5 13L4 13L4 12L3 12L3 11ZM14 11L14 12L15 12L15 11ZM27 11L27 12L29 12L29 11ZM24 12L24 13L25 13L25 12ZM6 13L6 14L8 14L8 13ZM28 13L28 14L29 14L29 13ZM24 14L24 15L25 15L25 14ZM27 16L27 17L28 17L28 16ZM6 17L6 18L7 18L7 17ZM19 17L19 18L20 18L20 17ZM17 18L17 19L18 19L18 18ZM21 18L21 19L22 19L22 18ZM25 18L25 19L26 19L26 18ZM6 19L6 20L7 20L7 19ZM14 20L14 21L15 21L15 23L14 23L14 24L15 24L15 23L18 23L18 22L17 22L17 21L18 21L18 20L17 20L17 21L15 21L15 20ZM21 21L21 24L24 24L24 21ZM22 22L22 23L23 23L23 22ZM26 23L26 24L25 24L25 27L24 27L24 28L25 28L25 27L26 27L26 28L27 28L27 27L26 27L26 26L27 26L27 23ZM19 25L19 26L20 26L20 25ZM14 27L14 28L15 28L15 27ZM0 0L0 7L7 7L7 0ZM1 1L1 6L6 6L6 1ZM2 2L2 5L5 5L5 2ZM22 0L22 7L29 7L29 0ZM23 1L23 6L28 6L28 1ZM24 2L24 5L27 5L27 2ZM0 22L0 29L7 29L7 22ZM1 23L1 28L6 28L6 23ZM2 24L2 27L5 27L5 24Z" fill="#000000"/></g></g></svg>
